<?xml version="1.0" standalone="no"?>
<!DOCTYPE svg PUBLIC "-//W3C//DTD SVG 20010904//EN"
 "http://www.w3.org/TR/2001/REC-SVG-20010904/DTD/svg10.dtd">
<svg version="1.0" xmlns="http://www.w3.org/2000/svg"
 width="256.000000pt" height="276.000000pt" viewBox="0 0 256.000000 276.000000"
 preserveAspectRatio="xMidYMid meet">

<g transform="translate(0.000000,276.000000) scale(0.100000,-0.100000)"
fill="#000000" stroke="none">
<path d="M623 2433 l-23 -4 0 -355 c0 -195 -2 -354 -5 -354 -3 0 -23 12 -45
26 -58 39 -70 25 -70 -82 l0 -84 -172 -2 -173 -3 -3 -122 -3 -123 173 -2 173
-3 5 -90 c6 -101 16 -113 69 -76 16 12 34 21 40 21 8 0 11 -104 11 -355 l0
-355 255 0 254 0 3 -113 3 -112 50 -3 c37 -2 165 27 495 111 l445 114 0 984 0
984 -730 1 c-401 1 -740 -1 -752 -3z m834 -119 c-3 -4 -82 -25 -174 -48 l-168
-41 -3 -817 -2 -818 -190 0 -190 0 0 343 0 342 111 69 c138 86 152 97 144 116
-3 8 -62 50 -131 94 l-124 78 0 337 c0 186 3 341 7 344 3 4 168 7 366 7 198 0
358 -3 354 -6z"/>
</g>
</svg>
