<?xml version="1.0" standalone="no"?>
<!DOCTYPE svg PUBLIC "-//W3C//DTD SVG 20010904//EN"
 "http://www.w3.org/TR/2001/REC-SVG-20010904/DTD/svg10.dtd">
<svg version="1.0" xmlns="http://www.w3.org/2000/svg"
 width="264.000000pt" height="304.000000pt" viewBox="0 0 264.000000 304.000000"
 preserveAspectRatio="xMidYMid meet">

<g transform="translate(0.000000,304.000000) scale(0.100000,-0.100000)"
fill="#000000" stroke="none">
<path d="M320 1536 c0 -591 3 -1077 8 -1079 4 -3 222 -59 484 -126 366 -93
491 -121 541 -121 78 0 77 -2 77 148 l0 102 280 0 280 0 2 468 c3 407 5 467
18 467 12 0 16 -19 18 -98 2 -76 6 -99 18 -104 8 -3 46 14 87 39 229 143 443
281 449 291 4 6 4 17 0 24 -12 21 -515 334 -532 331 -12 -3 -16 -22 -18 -101
-2 -89 -4 -97 -22 -97 -20 0 -20 10 -20 465 l0 465 -835 0 -835 0 0 -1074z
m1518 542 l-3 -401 -83 2 c-53 1 -89 -2 -98 -10 -11 -9 -14 -41 -14 -140 l0
-128 98 -3 97 -3 3 -403 2 -402 -205 0 -205 0 -1 878 c0 482 -4 886 -8 897 -7
16 -42 28 -197 67 l-189 46 403 1 402 1 -2 -402z"/>
</g>
</svg>
