<?xml version="1.0" standalone="no"?>
<!DOCTYPE svg PUBLIC "-//W3C//DTD SVG 20010904//EN"
 "http://www.w3.org/TR/2001/REC-SVG-20010904/DTD/svg10.dtd">
<svg version="1.0" xmlns="http://www.w3.org/2000/svg"
 width="340.000000pt" height="340.000000pt" viewBox="0 0 340.000000 340.000000"
 preserveAspectRatio="xMidYMid meet">

<g transform="translate(0.000000,340.000000) scale(0.100000,-0.100000)"
fill="#000000" stroke="none">
<path d="M1627 3076 c-224 -62 -252 -375 -42 -472 179 -84 382 57 362 251 -16
158 -168 263 -320 221z"/>
<path d="M1589 2477 c-19 -12 -44 -42 -56 -67 -23 -44 -23 -50 -23 -415 0
-365 0 -371 23 -415 43 -86 37 -84 390 -90 l312 -5 106 -190 c59 -104 119
-202 133 -217 76 -78 213 -52 258 49 14 32 19 58 15 85 -5 36 -183 371 -273
514 -52 82 -59 84 -368 84 l-266 0 0 170 c0 94 2 170 5 170 2 0 87 -30 187
-66 101 -37 198 -71 216 -76 45 -13 94 5 132 48 52 59 37 158 -30 197 -15 9
-146 59 -291 112 -145 52 -280 104 -300 115 -51 28 -126 27 -170 -3z"/>
<path d="M1214 2311 c-136 -99 -256 -282 -305 -466 -31 -116 -32 -308 -1 -425
45 -169 148 -335 274 -440 158 -132 317 -196 515 -207 162 -9 297 19 443 92
136 69 179 120 149 177 -30 57 -74 62 -145 16 -134 -85 -253 -121 -399 -121
-120 0 -200 18 -310 72 -137 68 -246 177 -314 315 -52 104 -71 187 -71 307 0
200 67 357 217 507 105 105 112 125 64 173 -37 37 -67 37 -117 0z"/>
</g>
</svg>
